<?xml version="1.0" encoding="utf-8"?>
<!-- Generator: Adobe Illustrator 27.7.0, SVG Export Plug-In . SVG Version: 6.00 Build 0)  -->
<svg version="1.1" id="Layer_1" xmlns="http://www.w3.org/2000/svg" xmlns:xlink="http://www.w3.org/1999/xlink" x="0px" y="0px"
	 viewBox="0 0 433.6 404.8" style="enable-background:new 0 0 433.6 404.8;" xml:space="preserve">
<style type="text/css">
	.st0{fill:none;stroke:#010202;stroke-miterlimit:10;}
	.st1{fill:#FFFFFF;}
	.st2{fill:#78BE7C;}
	.st3{clip-path:url(#SVGID_00000160152931191332853530000006022496280173753472_);}
	.st4{fill:#2B3354;}
	.st5{fill:#FFD95A;}
	.st6{fill:#FAD05D;}
	.st7{fill:#65B26C;}
	.st8{clip-path:url(#SVGID_00000101825024727392971790000003882787452803534473_);}
	.st9{fill:#3C3C3B;}
	.st10{fill:#EBE8E1;}
	.st11{fill:none;stroke:#010202;stroke-width:1.0267;stroke-miterlimit:10;}
	.st12{fill:none;stroke:#010202;stroke-width:0.7969;stroke-miterlimit:10;}
	.st13{fill:#878787;}
	.st14{clip-path:url(#SVGID_00000096755966492390908430000007901923468398649242_);}
	.st15{clip-path:url(#SVGID_00000168105749014165337010000017438818070249552823_);}
	.st16{clip-path:url(#SVGID_00000108286724277666355160000017078143919482320275_);}
	.st17{fill:#575756;}
	.st18{fill:#706F6F;}
	.st19{fill:#9D9D9C;}
	.st20{fill:#B2B2B2;}
	.st21{clip-path:url(#SVGID_00000101104776692312795600000005277928356232532388_);}
	.st22{font-family:'Lato-Bold';}
	.st23{font-size:27.7284px;}
	.st24{letter-spacing:2;}
	.st25{clip-path:url(#SVGID_00000095300101100271988770000000079083627754598583_);}
	.st26{clip-path:url(#SVGID_00000099640621028719067370000011092592312670971319_);}
</style>
<g>
	<g>
		<g>
			<g>
				<path class="st2" d="M179.8,352.3c-2.5-2-3.8-4.8-4.1-8.2c-0.1-1.6-0.2-3.2-0.2-4.9c0-2.8,0.5-7.3,1.6-13.7
					c0.5-3.2,1.3-6.8,2.2-10.8c2.8-11.3,6-21.2,9.5-30c1.7-4.3,3.6-8.5,5.6-12.7c2-4.2,4.5-8.1,7.4-11.8c1.1-1.4,2.6-2.5,4.3-3.2
					c0.7-0.3,1.3-0.4,1.9-0.4c1.7,0,3.1,0.9,4,2.7c0.3,0.7,0.5,1.4,0.4,2.1l-0.2,1.8c-2.4,13.9-6.8,27.3-13.4,40.2
					c-6.6,13-13.1,22.2-19.6,27.8c-0.8,0.7-1.4,1-1.9,1c-0.3,0-0.5-0.2-0.5-0.5c0-0.4,0.2-1.1,0.6-1.9c0.3-0.6,0.4-1.2,0.4-1.6
					c0-0.1,0-0.2-0.1-0.2c4.3-3.9,8.6-9.4,12.9-16.5c5.2-8.6,9.9-19.3,13.9-32c1.3-3.8,2.3-8.2,3.1-13.2c0.1-0.7,0.2-1.5,0.2-2.4
					c0-1-0.2-1.5-0.7-1.5c-0.4,0-1.1,0.5-2.1,1.5c-3.2,3.2-6,6.7-8.2,10.6c-2.2,3.9-4.3,8.1-6.2,12.4c-5.9,13.2-9.7,26.2-11.5,38.9
					c-0.4,3.2-0.7,6.8-0.7,10.8c0,4,0.6,7.2,1.7,9.7c0.9,2,2,3,3.5,3c0.3,0,0.6,0,0.9-0.1c2.9-0.7,6-2.6,9.3-5.5
					c4.2-3.7,9.2-9.2,14.8-16.5c0.2-0.3,0.5-0.5,0.9-0.5c0.7,0,1,0.3,1,1c0,0.2-2.3,3.5-7,9.7c-3.6,4.7-7.5,8.9-11.7,12.5
					c-2.8,2.4-5.5,3.6-8.1,3.6C182.3,353.7,180.9,353.2,179.8,352.3z"/>
				<path class="st2" d="M208.8,335.4c-0.8-1.2-1.2-2.5-1.2-3.8c0-0.7,0.1-1.5,0.4-2.2c0.7-2.1,1.6-4,2.7-5.7l0.6-0.8
					c3.5-4.5,6.9-6.7,10.2-6.8c1.7,0.1,3.1,0.8,4.1,2.1c0.4,0.8,0.7,1.6,0.7,2.4c0,0.7-0.2,1.4-0.5,2.1c-0.8,1.7-1.9,3.2-3.1,4.4
					c-2.4,2.4-5.4,3.8-9.1,4c-1.3-0.2-2.1-0.7-2.3-1.3c-0.2-0.6-0.3-1.1-0.3-1.5c0-0.6,0.2-1.3,0.5-1.8c0.5-0.7,1.3-1.1,2.4-1.1h0.5
					c1,0,1.9-0.2,2.5-0.4c0.7-0.2,1.2-0.4,1.6-0.7c0.4-0.3,0.7-0.6,0.9-0.9c0.2-0.3,0.3-0.6,0.4-0.8c0.1-0.3,0.1-0.5,0.1-0.6
					l-0.1-0.2c-0.6,0.2-1.4,0.6-2.3,1.3c-0.9,0.7-1.7,1.5-2.5,2.5l-1,1.2c-1.1,1.9-1.7,3.7-1.7,5.4c0,1.4,0.8,2.2,2.4,2.6
					c0.6,0.1,1.1,0.2,1.6,0.2c0.2,0,0.3,0,0.4,0.1l1.2-0.1c3.2,0,6.6-0.7,10.2-2.2c4.3-1.8,8.7-4.2,13.2-7.3
					c0.3-0.2,0.6-0.2,0.9-0.2c0.7,0,1,0.4,1,1.2c0,0.4-0.3,0.8-0.8,1.2c-1.6,1.1-3.4,2.2-5.4,3.4c-5.2,3.1-10.8,5.4-16.6,6.9
					c-1.4,0.3-2.8,0.5-4.3,0.5C212.9,338,210.3,337.1,208.8,335.4z"/>
				<path class="st2" d="M239.7,339.2l-0.5-0.4l-0.2-0.5c-0.5-0.8-0.7-1.7-0.7-2.7c0-1.2,0.5-2.8,1.4-4.9c1.4-3.5,3.6-6.6,6.6-9.4
					c2.4-2,4.6-3,6.6-3c0.9,0,1.8,0.2,2.6,0.5c1.6,0.9,2.9,2.1,3.8,3.7l0.1,1.9c0,1.7-0.3,2.5-1,2.5c-0.6,0-1.6-0.5-3-1.6
					c-0.3-0.6-1.1-1-2.2-1c-1.3,0-2.5,0.4-3.7,1.2c-2.2,1.9-3.8,4.1-4.9,6.8c-0.4,1.1-0.5,1.8-0.5,2.2c0,0.3,0.1,0.5,0.4,0.5
					c0.2,0,0.8-0.3,1.7-0.9l0.8-0.5c3-2.5,5.8-5.2,8.3-8.3c1.9-2.3,3.4-3.6,4.4-3.9c1-0.3,1.6-0.5,2-0.5c1.1,0,2,0.6,2.8,1.9
					c0.3,0.8,0.5,2.2,0.5,4.2v0.9c0,1.5,0.3,3,1,4.5c0.5,1.1,1.3,1.9,2.5,2.5c0.8,0.3,1.7,0.5,2.6,0.5l1.5-0.1c5-0.9,9.7-3.2,14-6.9
					l1.7-1.4c0.6-0.5,1.2-0.8,1.7-0.8c0.8,0,1.2,0.2,1.3,0.6c0.1,0.4,0.1,0.6,0.1,0.7c0,0.4-0.3,0.9-0.9,1.5l-3,2.6
					c-4.4,3.4-9.3,5.7-14.7,6.9h-0.4c-0.4,0.1-0.9,0.1-1.5,0.1c-1.5,0-3.2-0.4-5-1.2c-2.9-1.6-4.8-4.7-5.6-9.2l-0.1-0.5
					c-0.2-0.9-0.3-1.3-0.3-1.4c0-0.1-0.1-0.1-0.1-0.2s0-0.1,0.1-0.1c0.2,0,0.2,0.3,0.2,0.8v0.5c-1.1,1.2-2.2,2.4-3.3,3.6
					c-2.1,2.6-4.5,4.9-7,7.1c-2.4,1.8-4.6,2.7-6.4,2.7C242,340.6,240.8,340.1,239.7,339.2z"/>
				<path class="st2" d="M300.9,360.3c0.2-4.5,0.6-9.1,1.3-13.6c1-8.1,1.9-14.4,2.7-18.7c5.1-26.9,11.6-51.3,19.8-73.5l0.3-0.7
					c2-4.7,3.3-7.1,3.8-7.3l2.2-0.1c1.5,0,2.4,0.3,2.7,0.9c0.2,0.4,0.2,0.8,0.2,1.3v0.1c0,1.2-1.6,5.8-4.7,13.9
					c-1.4,3.5-2.8,7-4.1,10.6c-11.5,32.7-21.3,54.8-29.3,66.4l-0.6,0.7c-1.9,2.4-3.7,3.5-5.4,3.5c-0.9,0-1.7-0.2-2.5-0.6
					c-1.1-0.7-1.7-1.8-1.7-3.2c0-1,0.1-2,0.3-2.9c0-0.1,0.1-0.2,0.1-0.3c1.9-6.2,4.7-12.1,8.4-17.6c1.2-1.8,2.6-3.5,4.1-5.1
					c1.5-1.6,3.4-2.7,5.7-3.4c2.4,0,3.6,1,3.6,2.9c0,1.6-1,2.5-3,2.9c-1.9,0.5-4,2.3-6.5,5.4c-3.2,4.2-5.6,8.8-6.9,13.8
					c-0.1,0.4-0.2,0.9-0.2,1.2c0,0.2,0.1,0.2,0.2,0.2c0.2,0,0.4-0.2,0.8-0.6c3.6-4,6.7-8.3,9.2-12.9c7.5-13.9,14.6-31.2,21.1-51.8
					c0.6-2.3,1.3-4.5,2-6.7c1.8-4.9,3.1-10.2,3.9-15.8l0.1-0.7c-0.1,0-0.2,0.3-0.5,0.8v0.2c0.7,0.5,1.5,0.8,2.3,1.1
					c0.6,0.2,1.2,0.4,1.8,0.7c0,0,0.1,0,0.1,0.1c0,0.1-0.1,0.1-0.2,0.2c-0.1,0-0.1,0.1-0.1,0.1l-0.4,0.5c-0.9,1.1-1.8,2.4-2.8,4.1
					c-5.3,9.7-10.2,22.5-14.8,38.2c-5.8,20-8.6,38.4-8.6,55.2c0,4.1,0.3,7.4,0.9,9.9c0,1.8-0.8,2.8-2.5,3
					C302.1,362.8,301.1,362,300.9,360.3z"/>
				<path class="st2" d="M319.4,335.4c-0.8-1.2-1.2-2.5-1.2-3.8c0-0.7,0.1-1.5,0.4-2.2c0.7-2.1,1.6-4,2.7-5.7l0.6-0.8
					c3.5-4.5,6.9-6.7,10.2-6.8c1.7,0.1,3.1,0.8,4.1,2.1c0.4,0.8,0.7,1.6,0.7,2.4c0,0.7-0.2,1.4-0.5,2.1c-0.8,1.7-1.9,3.2-3.1,4.4
					c-2.4,2.4-5.4,3.8-9.1,4c-1.3-0.2-2.1-0.7-2.3-1.3c-0.2-0.6-0.3-1.1-0.3-1.5c0-0.6,0.2-1.3,0.5-1.8c0.5-0.7,1.3-1.1,2.4-1.1h0.5
					c1,0,1.9-0.2,2.5-0.4c0.7-0.2,1.2-0.4,1.6-0.7c0.4-0.3,0.7-0.6,0.9-0.9c0.2-0.3,0.3-0.6,0.4-0.8c0.1-0.3,0.1-0.5,0.1-0.6
					l-0.1-0.2c-0.6,0.2-1.4,0.6-2.3,1.3c-0.9,0.7-1.7,1.5-2.5,2.5l-1,1.2c-1.1,1.9-1.7,3.7-1.7,5.4c0,1.4,0.8,2.2,2.4,2.6
					c0.6,0.1,1.1,0.2,1.6,0.2c0.2,0,0.3,0,0.4,0.1l1.2-0.1c3.2,0,6.6-0.7,10.2-2.2c4.3-1.8,8.7-4.2,13.2-7.3
					c0.3-0.2,0.6-0.2,0.9-0.2c0.7,0,1,0.4,1,1.2c0,0.4-0.3,0.8-0.8,1.2c-1.6,1.1-3.4,2.2-5.4,3.4c-5.2,3.1-10.8,5.4-16.6,6.9
					c-1.4,0.3-2.8,0.5-4.3,0.5C323.5,338,321,337.1,319.4,335.4z"/>
				<path class="st2" d="M348.9,346.8c0-0.8,0.2-2,0.5-3.6c2.3-10.7,3.7-21.6,4.2-32.8c0-1.4,0.4-2.2,1.1-2.3
					c0.7-0.2,1.1-0.3,1.4-0.3c0.6,0,1.3,0.2,1.9,0.7c0.6,0.4,0.9,1.1,0.9,1.9c0,0.8-0.7,4.7-2,11.6c-1,5.1-2,10.4-3.2,16.1
					c0.3-2.6,0.9-5.7,1.8-9.3c1.9-7.5,5.4-11.8,10.6-12.7c0.5-0.1,1-0.1,1.5-0.1c1.8,0,4.2,0.4,7.4,1.3c5.7,1.6,10.3,2.4,14,2.4
					c1,0,2-0.1,2.9-0.2c0.9-0.2,1.4-0.2,1.6-0.2c1.3,0,1.9,0.3,1.9,0.9c0,0.7-0.6,1.2-1.8,1.4l-1.4,0.2c-1,0.2-1.9,0.2-2.9,0.2
					l-1.1-0.1c-4.5-0.3-7.9-0.6-10.1-1c-5.1-1-8.4-1.5-9.8-1.5c-1,0-1.8,0.1-2.5,0.4c-2.3,1.1-4,2.6-5.1,4.7
					c-2.4,4.3-4.2,11.1-5.5,20.4c-0.3,2.8-1.6,4.3-3.7,4.3C349.8,349.2,348.9,348.4,348.9,346.8z"/>
			</g>
		</g>
		<g>
			<path d="M85.3,255v9.5H72.6V312h-9.5v-47.5H50.4V255H85.3z"/>
			<path d="M146.3,312h-11.5l-16.4-23.8h-7.1V312h-9.5V255h24.6c8.5,0,15.7,6.5,16.5,15c0.9,8.5-4.9,16.3-13.2,18L146.3,312z
				 M126.4,278.7c2.6,0.1,5-1.3,6.4-3.5c1.3-2.2,1.3-5,0-7.3c-1.3-2.2-3.8-3.6-6.4-3.5h-15.1v14.3L126.4,278.7z"/>
			<path d="M205.1,255v36c0,11.7-9.4,21.1-21.1,21.1c-11.7,0-21.1-9.5-21.1-21.1v-36h9.5v36c0,6.4,5.2,11.6,11.6,11.6
				c6.4,0,11.6-5.2,11.6-11.6v-36H205.1z"/>
			<path d="M256,295.6v0.3c0,8.8-7.1,15.9-15.9,15.9h-2.5c-7.7,0-14.4-5.5-15.7-13.2l9.4-1.6c0.5,3.1,3.2,5.3,6.3,5.3h2.5
				c3.5,0,6.4-2.9,6.4-6.4v-0.3c0-2.7-1.7-5-4.1-6l-10.3-3.9c-7.2-2.7-11.4-10.2-10.1-17.7c1.4-7.6,8-13.1,15.7-13.1h2.5
				c6.1,0,11.6,3.4,14.3,8.9l-8.5,4.2c-1.1-2.2-3.3-3.6-5.7-3.6h-2.5c-3.1,0-5.7,2.2-6.3,5.3c-0.6,3,1.2,6,4,7.1l10.3,3.9
				C251.9,283.1,256,289,256,295.6z"/>
			<path d="M307.5,255v9.5h-12.7V312h-9.5v-47.5h-12.7V255H307.5z"/>
		</g>
		<g>
			<defs>
				<path id="SVGID_00000170967854156371321460000012954061519516268938_" d="M173.5,244.6v120.2h224V244.6H173.5z M205.1,265.6
					c-2.8,2.9-5.2,6.1-7.2,9.6c-0.6,1.1-1.2,2.2-1.8,3.3l-0.5,0.2v-10.8c1.6-2.8,3.5-5.6,5.5-8.2c1.1-1.3,2.4-2.4,4-3.1V265.6z"/>
			</defs>
			<clipPath id="SVGID_00000153683467259371637470000006946996894810321341_">
				<use xlink:href="#SVGID_00000170967854156371321460000012954061519516268938_"  style="overflow:visible;"/>
			</clipPath>
			<g style="clip-path:url(#SVGID_00000153683467259371637470000006946996894810321341_);">
				<path class="st2" d="M179.8,352.3c-2.5-2-3.8-4.8-4.1-8.2c-0.1-1.6-0.2-3.2-0.2-4.9c0-2.8,0.5-7.3,1.6-13.7
					c0.5-3.2,1.3-6.8,2.2-10.8c2.8-11.3,6-21.2,9.5-30c1.7-4.3,3.6-8.5,5.6-12.7c2-4.2,4.5-8.1,7.4-11.8c1.1-1.4,2.6-2.5,4.3-3.2
					c0.7-0.3,1.3-0.4,1.9-0.4c1.7,0,3.1,0.9,4,2.7c0.3,0.7,0.5,1.4,0.4,2.1l-0.2,1.8c-2.4,13.9-6.8,27.3-13.4,40.2
					c-6.6,13-13.1,22.2-19.6,27.8c-0.8,0.7-1.4,1-1.9,1c-0.3,0-0.5-0.2-0.5-0.5c0-0.4,0.2-1.1,0.6-1.9c0.3-0.6,0.4-1.2,0.4-1.6
					c0-0.1,0-0.2-0.1-0.2c4.3-3.9,8.6-9.4,12.9-16.5c5.2-8.6,9.9-19.3,13.9-32c1.3-3.8,2.3-8.2,3.1-13.2c0.1-0.7,0.2-1.5,0.2-2.4
					c0-1-0.2-1.5-0.7-1.5c-0.4,0-1.1,0.5-2.1,1.5c-3.2,3.2-6,6.7-8.2,10.6c-2.2,3.9-4.3,8.1-6.2,12.4c-5.9,13.2-9.7,26.2-11.5,38.9
					c-0.4,3.2-0.7,6.8-0.7,10.8c0,4,0.6,7.2,1.7,9.7c0.9,2,2,3,3.5,3c0.3,0,0.6,0,0.9-0.1c2.9-0.7,6-2.6,9.3-5.5
					c4.2-3.7,9.2-9.2,14.8-16.5c0.2-0.3,0.5-0.5,0.9-0.5c0.7,0,1,0.3,1,1c0,0.2-2.3,3.5-7,9.7c-3.6,4.7-7.5,8.9-11.7,12.5
					c-2.8,2.4-5.5,3.6-8.1,3.6C182.3,353.7,180.9,353.2,179.8,352.3z"/>
				<path class="st2" d="M208.8,335.4c-0.8-1.2-1.2-2.5-1.2-3.8c0-0.7,0.1-1.5,0.4-2.2c0.7-2.1,1.6-4,2.7-5.7l0.6-0.8
					c3.5-4.5,6.9-6.7,10.2-6.8c1.7,0.1,3.1,0.8,4.1,2.1c0.4,0.8,0.7,1.6,0.7,2.4c0,0.7-0.2,1.4-0.5,2.1c-0.8,1.7-1.9,3.2-3.1,4.4
					c-2.4,2.4-5.4,3.8-9.1,4c-1.3-0.2-2.1-0.7-2.3-1.3c-0.2-0.6-0.3-1.1-0.3-1.5c0-0.6,0.2-1.3,0.5-1.8c0.5-0.7,1.3-1.1,2.4-1.1h0.5
					c1,0,1.9-0.2,2.5-0.4c0.7-0.2,1.2-0.4,1.6-0.7c0.4-0.3,0.7-0.6,0.9-0.9c0.2-0.3,0.3-0.6,0.4-0.8c0.1-0.3,0.1-0.5,0.1-0.6
					l-0.1-0.2c-0.6,0.2-1.4,0.6-2.3,1.3c-0.9,0.7-1.7,1.5-2.5,2.5l-1,1.2c-1.1,1.9-1.7,3.7-1.7,5.4c0,1.4,0.8,2.2,2.4,2.6
					c0.6,0.1,1.1,0.2,1.6,0.2c0.2,0,0.3,0,0.4,0.1l1.2-0.1c3.2,0,6.6-0.7,10.2-2.2c4.3-1.8,8.7-4.2,13.2-7.3
					c0.3-0.2,0.6-0.2,0.9-0.2c0.7,0,1,0.4,1,1.2c0,0.4-0.3,0.8-0.8,1.2c-1.6,1.1-3.4,2.2-5.4,3.4c-5.2,3.1-10.8,5.4-16.6,6.9
					c-1.4,0.3-2.8,0.5-4.3,0.5C212.9,338,210.3,337.1,208.8,335.4z"/>
				<path class="st2" d="M239.7,339.2l-0.5-0.4l-0.2-0.5c-0.5-0.8-0.7-1.7-0.7-2.7c0-1.2,0.5-2.8,1.4-4.9c1.4-3.5,3.6-6.6,6.6-9.4
					c2.4-2,4.6-3,6.6-3c0.9,0,1.8,0.2,2.6,0.5c1.6,0.9,2.9,2.1,3.8,3.7l0.1,1.9c0,1.7-0.3,2.5-1,2.5c-0.6,0-1.6-0.5-3-1.6
					c-0.3-0.6-1.1-1-2.2-1c-1.3,0-2.5,0.4-3.7,1.2c-2.2,1.9-3.8,4.1-4.9,6.8c-0.4,1.1-0.5,1.8-0.5,2.2c0,0.3,0.1,0.5,0.4,0.5
					c0.2,0,0.8-0.3,1.7-0.9l0.8-0.5c3-2.5,5.8-5.2,8.3-8.3c1.9-2.3,3.4-3.6,4.4-3.9c1-0.3,1.6-0.5,2-0.5c1.1,0,2,0.6,2.8,1.9
					c0.3,0.8,0.5,2.2,0.5,4.2v0.9c0,1.5,0.3,3,1,4.5c0.5,1.1,1.3,1.9,2.5,2.5c0.8,0.3,1.7,0.5,2.6,0.5l1.5-0.1c5-0.9,9.7-3.2,14-6.9
					l1.7-1.4c0.6-0.5,1.2-0.8,1.7-0.8c0.8,0,1.2,0.2,1.3,0.6c0.1,0.4,0.1,0.6,0.1,0.7c0,0.4-0.3,0.9-0.9,1.5l-3,2.6
					c-4.4,3.4-9.3,5.7-14.7,6.9h-0.4c-0.4,0.1-0.9,0.1-1.5,0.1c-1.5,0-3.2-0.4-5-1.2c-2.9-1.6-4.8-4.7-5.6-9.2l-0.1-0.5
					c-0.2-0.9-0.3-1.3-0.3-1.4c0-0.1-0.1-0.1-0.1-0.2s0-0.1,0.1-0.1c0.2,0,0.2,0.3,0.2,0.8v0.5c-1.1,1.2-2.2,2.4-3.3,3.6
					c-2.1,2.6-4.5,4.9-7,7.1c-2.4,1.8-4.6,2.7-6.4,2.7C242,340.6,240.8,340.1,239.7,339.2z"/>
				<path class="st2" d="M300.9,360.3c0.2-4.5,0.6-9.1,1.3-13.6c1-8.1,1.9-14.4,2.7-18.7c5.1-26.9,11.6-51.3,19.8-73.5l0.3-0.7
					c2-4.7,3.3-7.1,3.8-7.3l2.2-0.1c1.5,0,2.4,0.3,2.7,0.9c0.2,0.4,0.2,0.8,0.2,1.3v0.1c0,1.2-1.6,5.8-4.7,13.9
					c-1.4,3.5-2.8,7-4.1,10.6c-11.5,32.7-21.3,54.8-29.3,66.4l-0.6,0.7c-1.9,2.4-3.7,3.5-5.4,3.5c-0.9,0-1.7-0.2-2.5-0.6
					c-1.1-0.7-1.7-1.8-1.7-3.2c0-1,0.1-2,0.3-2.9c0-0.1,0.1-0.2,0.1-0.3c1.9-6.2,4.7-12.1,8.4-17.6c1.2-1.8,2.6-3.5,4.1-5.1
					c1.5-1.6,3.4-2.7,5.7-3.4c2.4,0,3.6,1,3.6,2.9c0,1.6-1,2.5-3,2.9c-1.9,0.5-4,2.3-6.5,5.4c-3.2,4.2-5.6,8.8-6.9,13.8
					c-0.1,0.4-0.2,0.9-0.2,1.2c0,0.2,0.1,0.2,0.2,0.2c0.2,0,0.4-0.2,0.8-0.6c3.6-4,6.7-8.3,9.2-12.9c7.5-13.9,14.6-31.2,21.1-51.8
					c0.6-2.3,1.3-4.5,2-6.7c1.8-4.9,3.1-10.2,3.9-15.8l0.1-0.7c-0.1,0-0.2,0.3-0.5,0.8v0.2c0.7,0.5,1.5,0.8,2.3,1.1
					c0.6,0.2,1.2,0.4,1.8,0.7c0,0,0.1,0,0.1,0.1c0,0.1-0.1,0.1-0.2,0.2c-0.1,0-0.1,0.1-0.1,0.1l-0.4,0.5c-0.9,1.1-1.8,2.4-2.8,4.1
					c-5.3,9.7-10.2,22.5-14.8,38.2c-5.8,20-8.6,38.4-8.6,55.2c0,4.1,0.3,7.4,0.9,9.9c0,1.8-0.8,2.8-2.5,3
					C302.1,362.8,301.1,362,300.9,360.3z"/>
				<path class="st2" d="M319.4,335.4c-0.8-1.2-1.2-2.5-1.2-3.8c0-0.7,0.1-1.5,0.4-2.2c0.7-2.1,1.6-4,2.7-5.7l0.6-0.8
					c3.5-4.5,6.9-6.7,10.2-6.8c1.7,0.1,3.1,0.8,4.1,2.1c0.4,0.8,0.7,1.6,0.7,2.4c0,0.7-0.2,1.4-0.5,2.1c-0.8,1.7-1.9,3.2-3.1,4.4
					c-2.4,2.4-5.4,3.8-9.1,4c-1.3-0.2-2.1-0.7-2.3-1.3c-0.2-0.6-0.3-1.1-0.3-1.5c0-0.6,0.2-1.3,0.5-1.8c0.5-0.7,1.3-1.1,2.4-1.1h0.5
					c1,0,1.9-0.2,2.5-0.4c0.7-0.2,1.2-0.4,1.6-0.7c0.4-0.3,0.7-0.6,0.9-0.9c0.2-0.3,0.3-0.6,0.4-0.8c0.1-0.3,0.1-0.5,0.1-0.6
					l-0.1-0.2c-0.6,0.2-1.4,0.6-2.3,1.3c-0.9,0.7-1.7,1.5-2.5,2.5l-1,1.2c-1.1,1.9-1.7,3.7-1.7,5.4c0,1.4,0.8,2.2,2.4,2.6
					c0.6,0.1,1.1,0.2,1.6,0.2c0.2,0,0.3,0,0.4,0.1l1.2-0.1c3.2,0,6.6-0.7,10.2-2.2c4.3-1.8,8.7-4.2,13.2-7.3
					c0.3-0.2,0.6-0.2,0.9-0.2c0.7,0,1,0.4,1,1.2c0,0.4-0.3,0.8-0.8,1.2c-1.6,1.1-3.4,2.2-5.4,3.4c-5.2,3.1-10.8,5.4-16.6,6.9
					c-1.4,0.3-2.8,0.5-4.3,0.5C323.5,338,321,337.1,319.4,335.4z"/>
				<path class="st2" d="M348.9,346.8c0-0.8,0.2-2,0.5-3.6c2.3-10.7,3.7-21.6,4.2-32.8c0-1.4,0.4-2.2,1.1-2.3
					c0.7-0.2,1.1-0.3,1.4-0.3c0.6,0,1.3,0.2,1.9,0.7c0.6,0.4,0.9,1.1,0.9,1.9c0,0.8-0.7,4.7-2,11.6c-1,5.1-2,10.4-3.2,16.1
					c0.3-2.6,0.9-5.7,1.8-9.3c1.9-7.5,5.4-11.8,10.6-12.7c0.5-0.1,1-0.1,1.5-0.1c1.8,0,4.2,0.4,7.4,1.3c5.7,1.6,10.3,2.4,14,2.4
					c1,0,2-0.1,2.9-0.2c0.9-0.2,1.4-0.2,1.6-0.2c1.3,0,1.9,0.3,1.9,0.9c0,0.7-0.6,1.2-1.8,1.4l-1.4,0.2c-1,0.2-1.9,0.2-2.9,0.2
					l-1.1-0.1c-4.5-0.3-7.9-0.6-10.1-1c-5.1-1-8.4-1.5-9.8-1.5c-1,0-1.8,0.1-2.5,0.4c-2.3,1.1-4,2.6-5.1,4.7
					c-2.4,4.3-4.2,11.1-5.5,20.4c-0.3,2.8-1.6,4.3-3.7,4.3C349.8,349.2,348.9,348.4,348.9,346.8z"/>
			</g>
		</g>
	</g>
	<circle class="st4" cx="80.5" cy="211.4" r="27.2"/>
	<g>
		<circle class="st5" cx="146.3" cy="146.1" r="27.2"/>
		<circle class="st5" cx="146.3" cy="149.2" r="27.2"/>
		<circle class="st5" cx="146.3" cy="152.3" r="27.2"/>
		<circle class="st5" cx="146.3" cy="155.4" r="27.2"/>
		<circle class="st5" cx="146.3" cy="158.5" r="27.2"/>
		<circle class="st5" cx="146.3" cy="161.6" r="27.2"/>
		<circle class="st5" cx="146.3" cy="164.8" r="27.2"/>
		<circle class="st5" cx="146.3" cy="167.9" r="27.2"/>
		<circle class="st5" cx="146.3" cy="171" r="27.2"/>
		<circle class="st5" cx="146.3" cy="174.1" r="27.2"/>
		<circle class="st5" cx="146.3" cy="177.2" r="27.2"/>
		<circle class="st5" cx="146.3" cy="180.3" r="27.2"/>
		<circle class="st5" cx="146.3" cy="183.4" r="27.2"/>
		<circle class="st5" cx="146.3" cy="186.5" r="27.2"/>
		<circle class="st5" cx="146.3" cy="189.6" r="27.2"/>
		<circle class="st5" cx="146.3" cy="192.7" r="27.2"/>
		<circle class="st5" cx="146.3" cy="195.8" r="27.2"/>
		<circle class="st5" cx="146.3" cy="198.9" r="27.2"/>
		<circle class="st5" cx="146.3" cy="202" r="27.2"/>
		<circle class="st5" cx="146.3" cy="205.2" r="27.2"/>
		<circle class="st5" cx="146.3" cy="208.3" r="27.2"/>
		<circle class="st5" cx="146.3" cy="211.4" r="27.2"/>
	</g>
	<circle class="st6" cx="146.3" cy="146.1" r="27.2"/>
	<g>
		<circle class="st2" cx="213.1" cy="79.8" r="27.2"/>
		<circle class="st2" cx="213.1" cy="86.1" r="27.2"/>
		<circle class="st2" cx="213.1" cy="92.3" r="27.2"/>
		<circle class="st2" cx="213.1" cy="98.6" r="27.2"/>
		<circle class="st2" cx="213.1" cy="104.9" r="27.2"/>
		<circle class="st2" cx="213.1" cy="111.1" r="27.2"/>
		<circle class="st2" cx="213.1" cy="117.4" r="27.2"/>
		<circle class="st2" cx="213.1" cy="123.6" r="27.2"/>
		<circle class="st2" cx="213.1" cy="129.9" r="27.2"/>
		<circle class="st2" cx="213.1" cy="136.2" r="27.2"/>
		<circle class="st2" cx="213.1" cy="142.4" r="27.2"/>
		<circle class="st2" cx="213.1" cy="148.7" r="27.2"/>
		<circle class="st2" cx="213.1" cy="155" r="27.2"/>
		<circle class="st2" cx="213.1" cy="161.2" r="27.2"/>
		<circle class="st2" cx="213.1" cy="167.5" r="27.2"/>
		<circle class="st2" cx="213.1" cy="173.8" r="27.2"/>
		<circle class="st2" cx="213.1" cy="180" r="27.2"/>
		<circle class="st2" cx="213.1" cy="186.3" r="27.2"/>
		<circle class="st2" cx="213.1" cy="192.6" r="27.2"/>
		<circle class="st2" cx="213.1" cy="198.8" r="27.2"/>
		<circle class="st2" cx="213.1" cy="205.1" r="27.2"/>
		<circle class="st2" cx="213.1" cy="211.4" r="27.2"/>
	</g>
	<circle class="st7" cx="213.1" cy="79.8" r="27.2"/>
	<text transform="matrix(1 0 0 1 249.5584 237.6924)" class="st22 st23 st24">the</text>
</g>
</svg>
